

<svg xmlns="http://www.w3.org/2000/svg" xmlns:xlink="http://www.w3.org/1999/xlink" viewBox="0 0 849 228" width="849" height="228" preserveAspectRatio="xMidYMid meet" style="width: 100%; height: 100%; transform: translate3d(0px, 0px, 0px); content-visibility: visible;" id="Loading"><defs><clipPath id="__lottie_element_7162"><rect width="849" height="228" x="0" y="0"/></clipPath></defs><g clip-path="url(#__lottie_element_7162)"><g style="display: block;" transform="matrix(0.8928526043891907,0,0,0.8928526043891907,409.3649597167969,124.77626037597656)" opacity="0.8896988218631731"><g opacity="1" transform="matrix(1,0,0,1,-247.5,-9)"><path fill="rgb(0,172,101)" fill-opacity="1" d=" M0,-120 C66.22799682617188,-120 120,-66.22799682617188 120,0 C120,66.22799682617188 66.22799682617188,120 0,120 C-66.22799682617188,120 -120,66.22799682617188 -120,0 C-120,-66.22799682617188 -66.22799682617188,-120 0,-120z"/><path stroke-linecap="butt" stroke-linejoin="miter" fill-opacity="0" stroke-miterlimit="4" stroke="rgb(255,255,255)" stroke-opacity="1" stroke-width="0" d=" M0,-120 C66.22799682617188,-120 120,-66.22799682617188 120,0 C120,66.22799682617188 66.22799682617188,120 0,120 C-66.22799682617188,120 -120,66.22799682617188 -120,0 C-120,-66.22799682617188 -66.22799682617188,-120 0,-120z"/></g></g><g transform="matrix(0.6507872939109802,0,0,0.6507872939109802,575.3734130859375,123.62993621826172)" opacity="0.00311987974584099" style="display: none;"><g opacity="1" transform="matrix(1,0,0,1,-247.5,-9)"><path fill="rgb(0,172,101)" fill-opacity="1" d=" M0,-120 C66.22799682617188,-120 120,-66.22799682617188 120,0 C120,66.22799682617188 66.22799682617188,120 0,120 C-66.22799682617188,120 -120,66.22799682617188 -120,0 C-120,-66.22799682617188 -66.22799682617188,-120 0,-120z"/><path stroke-linecap="butt" stroke-linejoin="miter" fill-opacity="0" stroke-miterlimit="4" stroke="rgb(255,255,255)" stroke-opacity="1" stroke-width="0" d=" M0,-120 C66.22799682617188,-120 120,-66.22799682617188 120,0 C120,66.22799682617188 66.22799682617188,120 0,120 C-66.22799682617188,120 -120,66.22799682617188 -120,0 C-120,-66.22799682617188 -66.22799682617188,-120 0,-120z"/></g></g><g transform="matrix(0.6510834693908691,0,0,0.6510834693908691,804.8292846679688,123.56741333007812)" opacity="0.004275390569323605" style="display: none;"><g opacity="1" transform="matrix(1,0,0,1,-247.5,-9)"><path fill="rgb(0,172,101)" fill-opacity="1" d=" M0,-120 C66.22799682617188,-120 120,-66.22799682617188 120,0 C120,66.22799682617188 66.22799682617188,120 0,120 C-66.22799682617188,120 -120,66.22799682617188 -120,0 C-120,-66.22799682617188 -66.22799682617188,-120 0,-120z"/><path stroke-linecap="butt" stroke-linejoin="miter" fill-opacity="0" stroke-miterlimit="4" stroke="rgb(255,255,255)" stroke-opacity="1" stroke-width="0" d=" M0,-120 C66.22799682617188,-120 120,-66.22799682617188 120,0 C120,66.22799682617188 66.22799682617188,120 0,120 C-66.22799682617188,120 -120,66.22799682617188 -120,0 C-120,-66.22799682617188 -66.22799682617188,-120 0,-120z"/></g></g></g>
</svg>